<region> lokey=60 hikey=61 pitch_keycenter=60 sample=per_1_1.$EXT region_label=1_1
<region> lokey=62 hikey=64 pitch_keycenter=63 sample=per_1_3.$EXT region_label=1_3
<region> lokey=65 hikey=67 pitch_keycenter=66 sample=per_1_4.$EXT region_label=1_4
<region> lokey=68 hikey=70 pitch_keycenter=69 sample=per_1_6.$EXT region_label=1_6
<region> lokey=71 hikey=73 pitch_keycenter=72 sample=per_2_1.$EXT region_label=2_1
<region> lokey=74 hikey=76 pitch_keycenter=75 sample=per_2_3.$EXT region_label=2_3
<region> lokey=77 hikey=79 pitch_keycenter=78 sample=per_2_4.$EXT region_label=2_4
<region> lokey=80 hikey=82 pitch_keycenter=81 sample=per_2_6.$EXT region_label=2_6
<region> lokey=83 hikey=84 pitch_keycenter=84 sample=per_3_1.$EXT region_label=3_1